<svg width="768" height="2361" viewBox="0 0 768 2361" fill="none" xmlns="http://www.w3.org/2000/svg">
<path d="M726 96V96C726 147.915 683.915 190 632 190H163.323C109.694 190 59.5715 216.65 29.5819 261.11V261.11C11.6047 287.761 2 319.176 2 351.323V400.757C2 432.858 11.5523 464.234 29.4408 490.889V490.889C59.4786 535.647 109.84 562.5 163.743 562.5H413.676C469.87 562.5 522.426 590.298 554.052 636.749V636.749C573.239 664.929 583.5 698.232 583.5 732.324V798.719C583.5 832.788 573.28 866.074 554.162 894.274V894.274C522.476 941.01 469.684 969 413.219 969H140.846C100.61 969 62.353 986.454 35.9813 1016.84V1016.84C14.0661 1042.1 2 1074.41 2 1107.85V1264.03C2 1297.53 14.1867 1329.88 36.2864 1355.05V1355.05C62.4821 1384.89 100.263 1402 139.969 1402H282.5H417.774C471.541 1402 521.966 1428.08 553.034 1471.97V1471.97C572.855 1499.96 583.5 1533.42 583.5 1567.73V1659.59C583.5 1693.73 573.156 1727.06 553.831 1755.21V1755.21C522.326 1801.08 470.243 1828.5 414.588 1828.5H192.575C121.808 1828.5 56.8691 1867.71 23.9189 1930.34V1930.34C9.52266 1957.7 2 1988.16 2 2019.07V2048.87C2 2079.82 9.57584 2110.3 24.0662 2137.65V2137.65C56.9412 2199.7 121.419 2238.5 191.639 2238.5C196.326 2238.5 200.961 2238.5 205.5 2238.5H220.013C236.745 2238.5 251.619 2249.16 257 2265V2265" stroke="#D0D5DD" stroke-width="4" stroke-linecap="round" stroke-linejoin="round" stroke-dasharray="8 8"/>
<g clip-path="url(#clip0_1_56)">
<path d="M728 80C717.692 80 707.968 78.625 700.619 76.1283C690.189 72.5848 688 68.0461 688 64.8626C688 60.7097 691.711 57.7994 694.824 56.0894C695.958 55.4661 697.383 55.8806 698.006 57.015C698.63 58.1495 698.215 59.5745 697.081 60.1976C694.289 61.7314 692.688 63.4317 692.688 64.8626C692.688 66.6128 695.167 69.3253 702.127 71.6898C709.003 74.0261 718.191 75.3125 728 75.3125C737.809 75.3125 746.997 74.0261 753.873 71.6898C760.833 69.3255 763.312 66.6128 763.312 64.8626C763.312 63.4317 761.711 61.7314 758.919 60.1975C757.785 59.5744 757.37 58.1494 757.994 57.0148C758.617 55.8805 760.042 55.4659 761.176 56.0892C764.289 57.7994 768 60.7097 768 64.8626C768 68.0461 765.811 72.5848 755.381 76.1283C748.032 78.625 738.308 80 728 80Z" fill="#C9DFF7"/>
<path d="M761.176 56.0893C760.041 55.466 758.617 55.8806 757.994 57.015C757.37 58.1495 757.785 59.5745 758.919 60.1976C761.711 61.7314 763.312 63.4317 763.312 64.8626C763.312 66.6128 760.833 69.3253 753.873 71.6898C746.997 74.026 737.808 75.3125 728 75.3125C728 75.3125 727.999 75.3125 727.999 75.3125V80C727.999 80 728 80 728 80C738.308 80 748.032 78.625 755.381 76.1282C765.811 72.5848 768 68.046 768 64.8626C768 60.7096 764.289 57.7993 761.176 56.0893Z" fill="#AECEF2"/>
<path d="M728 70.3859C721.347 70.3859 715.063 69.6457 710.305 68.3015C704.484 66.6573 701.533 64.277 701.533 61.2273C701.533 58.1774 704.484 55.7974 710.305 54.1532C715.063 52.809 721.347 52.0688 728 52.0688C734.653 52.0688 740.937 52.809 745.695 54.1532C751.516 55.7974 754.467 58.1776 754.467 61.2273C754.467 64.277 751.516 66.6573 745.695 68.3015C740.937 69.6456 734.653 70.3859 728 70.3859ZM706.26 61.2271C706.582 61.6995 708.146 62.9278 712.43 64.0187C716.682 65.1018 722.212 65.6982 728 65.6982C733.788 65.6982 739.317 65.1018 743.569 64.0187C747.853 62.9278 749.418 61.6993 749.74 61.2271C749.418 60.7549 747.853 59.5267 743.569 58.4356C739.317 57.3526 733.788 56.7562 728 56.7562C722.212 56.7562 716.682 57.3526 712.43 58.4356C708.147 59.5268 706.582 60.7549 706.26 61.2271ZM749.793 61.3242H749.795H749.793Z" fill="#C9DFF7"/>
<path d="M745.695 54.1531C740.937 52.8089 734.653 52.0687 728 52.0687C728 52.0687 727.999 52.0687 727.999 52.0687V56.7562C727.999 56.7562 728 56.7562 728 56.7562C733.788 56.7562 739.317 57.3526 743.569 58.4356C747.853 59.5267 749.418 60.755 749.74 61.2272C749.418 61.6995 747.853 62.9278 743.57 64.0187C739.318 65.1019 733.788 65.6983 728 65.6983C728 65.6983 727.999 65.6983 727.999 65.6983V70.3858C727.999 70.3858 728 70.3858 728 70.3858C734.653 70.3858 740.937 69.6456 745.695 68.3014C751.516 66.6572 754.467 64.2769 754.467 61.2272C754.467 58.1775 751.516 55.7973 745.695 54.1531Z" fill="#AECEF2"/>
<path d="M728 0C715.986 0 706.212 9.77375 706.212 21.7873C706.212 29.2703 715.303 45.715 722.93 58.1927C724.018 59.9736 725.914 61.0366 728 61.0366C730.086 61.0366 731.981 59.9734 733.07 58.1927C740.696 45.715 749.787 29.2703 749.787 21.7873C749.787 9.77375 740.014 0 728 0ZM728 29.0486C723.171 29.0486 719.243 25.1202 719.243 20.2914C719.243 15.4628 723.171 11.5344 728 11.5344C732.829 11.5344 736.757 15.4628 736.757 20.2914C736.757 25.1203 732.829 29.0486 728 29.0486Z" fill="#9E77ED"/>
<path d="M728 0C728 0 727.999 0 727.999 0V11.5344C727.999 11.5344 728 11.5344 728 11.5344C732.829 11.5344 736.757 15.4628 736.757 20.2914C736.757 25.1202 732.829 29.0486 728 29.0486C728 29.0486 727.999 29.0486 727.999 29.0486V61.0366C727.999 61.0366 728 61.0366 728 61.0366C730.086 61.0366 731.981 59.9734 733.07 58.1927C740.696 45.715 749.787 29.2703 749.787 21.7873C749.787 9.77375 740.014 0 728 0Z" fill="#7F56D9"/>
</g>
<g clip-path="url(#clip1_1_56)">
<path d="M258 2361C247.692 2361 237.968 2359.62 230.619 2357.13C220.189 2353.58 218 2349.05 218 2345.86C218 2341.71 221.711 2338.8 224.824 2337.09C225.958 2336.47 227.383 2336.88 228.006 2338.01C228.63 2339.15 228.215 2340.57 227.081 2341.2C224.289 2342.73 222.688 2344.43 222.688 2345.86C222.688 2347.61 225.167 2350.33 232.127 2352.69C239.003 2355.03 248.191 2356.31 258 2356.31C267.809 2356.31 276.997 2355.03 283.873 2352.69C290.833 2350.33 293.312 2347.61 293.312 2345.86C293.312 2344.43 291.711 2342.73 288.919 2341.2C287.785 2340.57 287.37 2339.15 287.994 2338.01C288.617 2336.88 290.042 2336.47 291.176 2337.09C294.289 2338.8 298 2341.71 298 2345.86C298 2349.05 295.811 2353.58 285.381 2357.13C278.032 2359.62 268.308 2361 258 2361Z" fill="#C9DFF7"/>
<path d="M291.176 2337.09C290.042 2336.47 288.617 2336.88 287.994 2338.01C287.37 2339.15 287.785 2340.57 288.919 2341.2C291.711 2342.73 293.313 2344.43 293.313 2345.86C293.313 2347.61 290.833 2350.33 283.873 2352.69C276.997 2355.03 267.809 2356.31 258 2356.31C258 2356.31 258 2356.31 257.999 2356.31V2361C258 2361 258 2361 258 2361C268.308 2361 278.032 2359.62 285.381 2357.13C295.811 2353.58 298 2349.05 298 2345.86C298 2341.71 294.289 2338.8 291.176 2337.09Z" fill="#AECEF2"/>
<path d="M258 2351.39C251.347 2351.39 245.063 2350.65 240.305 2349.3C234.484 2347.66 231.533 2345.28 231.533 2342.23C231.533 2339.18 234.484 2336.8 240.305 2335.15C245.063 2333.81 251.347 2333.07 258 2333.07C264.653 2333.07 270.937 2333.81 275.695 2335.15C281.516 2336.8 284.467 2339.18 284.467 2342.23C284.467 2345.28 281.516 2347.66 275.695 2349.3C270.937 2350.65 264.653 2351.39 258 2351.39ZM236.26 2342.23C236.582 2342.7 238.147 2343.93 242.43 2345.02C246.682 2346.1 252.212 2346.7 258 2346.7C263.788 2346.7 269.318 2346.1 273.57 2345.02C277.853 2343.93 279.418 2342.7 279.74 2342.23C279.418 2341.76 277.853 2340.53 273.569 2339.44C269.317 2338.35 263.788 2337.76 258 2337.76C252.212 2337.76 246.682 2338.35 242.43 2339.44C238.147 2340.53 236.582 2341.76 236.26 2342.23ZM279.793 2342.32H279.795H279.793Z" fill="#C9DFF7"/>
<path d="M275.695 2335.15C270.937 2333.81 264.653 2333.07 258 2333.07C258 2333.07 258 2333.07 257.999 2333.07V2337.76C258 2337.76 258 2337.76 258 2337.76C263.788 2337.76 269.318 2338.35 273.57 2339.44C277.853 2340.53 279.418 2341.75 279.74 2342.23C279.418 2342.7 277.853 2343.93 273.57 2345.02C269.318 2346.1 263.788 2346.7 258 2346.7C258 2346.7 258 2346.7 257.999 2346.7V2351.39C258 2351.39 258 2351.39 258 2351.39C264.653 2351.39 270.937 2350.65 275.695 2349.3C281.516 2347.66 284.467 2345.28 284.467 2342.23C284.467 2339.18 281.516 2336.8 275.695 2335.15Z" fill="#AECEF2"/>
<path d="M258 2281C245.986 2281 236.213 2290.77 236.213 2302.79C236.213 2310.27 245.304 2326.72 252.93 2339.19C254.018 2340.97 255.914 2342.04 258 2342.04C260.086 2342.04 261.982 2340.97 263.07 2339.19C270.697 2326.72 279.788 2310.27 279.788 2302.79C279.788 2290.77 270.014 2281 258 2281ZM258 2310.05C253.171 2310.05 249.243 2306.12 249.243 2301.29C249.243 2296.46 253.171 2292.53 258 2292.53C262.829 2292.53 266.757 2296.46 266.757 2301.29C266.757 2306.12 262.829 2310.05 258 2310.05Z" fill="#12B76A"/>
<path d="M258 2281C258 2281 258 2281 257.999 2281V2292.53C258 2292.53 258 2292.53 258 2292.53C262.829 2292.53 266.757 2296.46 266.757 2301.29C266.757 2306.12 262.829 2310.05 258 2310.05C258 2310.05 258 2310.05 257.999 2310.05V2342.04C258 2342.04 258 2342.04 258 2342.04C260.086 2342.04 261.982 2340.97 263.07 2339.19C270.697 2326.72 279.788 2310.27 279.788 2302.79C279.788 2290.77 270.014 2281 258 2281Z" fill="#039855"/>
</g>
<defs>
<clipPath id="clip0_1_56">
<rect width="80" height="80" fill="white" transform="translate(688)"/>
</clipPath>
<clipPath id="clip1_1_56">
<rect width="80" height="80" fill="white" transform="translate(218 2281)"/>
</clipPath>
</defs>
</svg>
